<svg width="61" height="61" viewBox="0 0 61 61" fill="none" xmlns="http://www.w3.org/2000/svg">
<path d="M30.3512 53.7636C40.6042 53.7636 49.1012 46.1066 49.1012 36.4421C49.1012 30.4024 46.0191 24.2949 42.5341 19.2863C39.0256 14.244 34.9799 10.1342 32.7957 8.05808C31.4169 6.74773 29.2854 6.74773 27.9066 8.0581C25.7224 10.1342 21.6766 14.244 18.1682 19.2863C14.6832 24.2949 11.6012 30.4024 11.6012 36.4421C11.6012 46.1066 20.0982 53.7636 30.3512 53.7636Z" stroke="#222222" stroke-width="2.5"/>
<path d="M30.3512 45.0137C29.0379 45.0137 27.7377 44.7549 26.5244 44.2524C25.3111 43.7499 24.2087 43.0134 23.2801 42.0847C22.3515 41.1562 21.6149 40.0537 21.1123 38.8404C20.6098 37.6272 20.3512 36.3269 20.3512 35.0137" stroke="#222222" stroke-width="2.5" stroke-linecap="round"/>
</svg>
