<svg width="65" height="59" viewBox="0 0 65 59" fill="none" xmlns="http://www.w3.org/2000/svg">
<path d="M28 12.0241C28 8.37586 24.8386 5.52069 20.9937 5.52069C20.1392 5.52069 19.3703 5.67931 18.6013 5.91724C18.3449 3.22069 15.9525 1 12.962 1C9.80063 1 7.23734 3.37931 7.23734 6.31379C7.23734 6.94828 7.40823 7.58276 7.57911 8.13793C7.32278 8.05862 6.98101 8.05862 6.72468 8.05862C3.56329 8.05862 1 10.4379 1 13.3724C1 16.2276 3.47785 18.6069 6.5538 18.6862H21.25C25.0095 18.2897 28 15.5138 28 12.0241Z" fill="#57A0EE" stroke="white" stroke-width="1.2" stroke-linejoin="round"/>
<path d="M6.89557 20.0345V24" stroke="#57A0EE" stroke-width="1.2" stroke-linecap="round"/>
<path d="M8.40601 20.6152L5.38515 23.4193" stroke="#57A0EE" stroke-linecap="round"/>
<path d="M9.03165 22.0172H4.7595" stroke="#57A0EE" stroke-linecap="round"/>
<path d="M8.40601 23.4193L5.38515 20.6153" stroke="#57A0EE" stroke-linecap="round"/>
<path d="M13.731 20.0345V24" stroke="#57A0EE" stroke-width="1.2" stroke-linecap="round"/>
<path d="M15.2414 20.6152L12.2206 23.4193" stroke="#57A0EE" stroke-linecap="round"/>
<path d="M15.8671 22.0172H11.5949" stroke="#57A0EE" stroke-linecap="round"/>
<path d="M15.2414 23.4193L12.2206 20.6153" stroke="#57A0EE" stroke-linecap="round"/>
<path d="M21.4209 20.0345V24" stroke="#57A0EE" stroke-width="1.2" stroke-linecap="round"/>
<path d="M22.9313 20.6152L19.9105 23.4193" stroke="#57A0EE" stroke-linecap="round"/>
<path d="M23.557 22.0172H19.2848" stroke="#57A0EE" stroke-linecap="round"/>
<path d="M22.9313 23.4193L19.9105 20.6153" stroke="#57A0EE" stroke-linecap="round"/>
<path d="M32 51.0001C44.7025 51.0001 55 40.7026 55 28.0001C55 15.2975 44.7025 5.00006 32 5.00006C19.2975 5.00006 9 15.2975 9 28.0001C9 40.7026 19.2975 51.0001 32 51.0001Z" fill="#9FDBF3"/>
<path d="M55 28C55.005 31.487 54.214 34.929 52.6873 38.064C51.1605 41.1989 48.9383 43.944 46.19 46.09C42.7706 48.002 38.9176 49.004 35 49C13.28 49 3.63 21.34 20.81 7.91002C24.3106 5.96064 28.2597 4.95956 32.2662 5.00594C36.2727 5.05231 40.1976 6.14452 43.6521 8.17439C47.1066 10.2043 49.9709 13.1014 51.9614 16.5788C53.9518 20.0562 54.9992 23.9933 55 28Z" fill="#B2E5FB"/>
<path d="M33 11C31 14 28 11 26 12C24 13 26.45 15.23 27 18C28 23 23 21 21 22C18.47 23.26 20.53 27.74 18 29C16.55 29.73 14.05 29.92 12 26.92C11.73 18.21 16.66 10.2 21.4 7.59002C24.6723 5.88332 28.3094 4.99465 32 5.00002C32 5.00002 34.75 8.37002 33 11Z" fill="#82BCF4"/>
<path d="M33 11.0001C31 14.0001 28 11.0001 26 12.0001C24 13.0001 26.45 15.2301 27 18.0001C28 23.0001 23 21.0001 21 22.0001C18.47 23.2601 20.53 27.7401 18 29.0001C16 30.0001 12 30.0001 10 22.0001C9.28 19.8901 16.29 5.00006 32 5.00006C32 5.00006 34.75 8.37006 33 11.0001Z" fill="#9DCC6B"/>
<path d="M33.54 9.56004C31.54 11.56 28.86 9.07004 27 10C26.16 10.42 26.1 11.06 26.37 11.87C26.2406 11.8938 26.1158 11.9377 26 12C23.75 13.13 27.13 15.77 27.13 19.17C25.75 19.94 23.27 19.37 22 20C19.61 21.2 21.32 25.28 19.36 26.77C18.7849 27.1546 18.1211 27.3859 17.4316 27.4419C16.742 27.4979 16.0496 27.3768 15.42 27.09C11.42 25.28 13.42 18.09 14.97 14.68C16.458 12.0652 18.4417 9.76559 20.81 7.91004C24.2282 5.9951 28.082 4.9929 32 5.00004C32 5.00004 33.87 7.29004 33.54 9.56004Z" fill="#B5E08C"/>
<path d="M30.41 41.5C29.692 41.6727 29.0507 42.0765 28.5846 42.6492C28.1184 43.222 27.8533 43.9319 27.83 44.67C27.7979 44.8701 27.7057 45.0558 27.5657 45.2023C27.4257 45.3489 27.2444 45.4494 27.046 45.4906C26.8475 45.5319 26.6412 45.5118 26.4544 45.4331C26.2676 45.3544 26.1091 45.2208 26 45.05C25.5783 44.4313 25.2419 43.7586 25 43.05C24 40.05 20.89 39.84 20 38.05C19 36.05 20 32.05 24 33.05C24 33.05 27 34.05 28 36.05C29 38.05 32.07 36.05 33 38.05C34 40.17 32.37 41.08 30.41 41.5Z" fill="#9DCC6B"/>
<path d="M33.26 39.54C32.88 41.61 30.07 40.93 28.68 42.54C28.4063 42.0488 28.1786 41.5332 28 41C27 38 23.89 37.79 23 36C22.5532 35.0001 22.5208 33.8638 22.91 32.84C23.9394 32.9572 24.9299 33.3015 25.8102 33.848C26.6904 34.3944 27.4383 35.1295 28 36C29 38 32.07 36 33 38C33.2509 38.4717 33.3422 39.0121 33.26 39.54Z" fill="#B5E08C"/>
<path d="M49 27.74C48.16 30.25 50.55 35.97 47 38.83C46.9 38.83 44.34 40.83 43.16 39.39C42.42 38.52 42.16 36.91 43.03 34.74C43.9 32.57 44.03 29.74 41.03 28.74C38.03 27.74 35.03 29.74 34.03 24.74C33.41 21.64 36.45 20.32 38.03 18.74C41.03 15.74 38.03 14.74 39.03 11.74C39.63 9.93004 42.03 8.85004 43.88 8.29004C49.37 12 53 16.52 54.45 23C52.39 23.67 49.78 25.39 49 27.74Z" fill="#9DCC6B"/>
<path d="M49 27.74C48.16 30.25 50.55 35.97 47 38.83C46.08 38.83 44.71 37.03 46 33.74C46.83 31.66 47 28.74 44 27.74C41 26.74 38 28.74 37 23.74C36.38 20.64 39.42 19.32 41 17.74C44 14.74 41 13.74 42 10.74C42.4091 9.74955 43.1619 8.93997 44.12 8.46002C46.7232 10.0737 48.9779 12.1911 50.7518 14.6879C52.5257 17.1848 53.783 20.0107 54.45 23C52.39 23.67 49.78 25.39 49 27.74Z" fill="#B5E08C"/>
<path d="M45.1612 16.8541V18.8333" stroke="#FFA500" stroke-width="2" stroke-linecap="round"/>
<path d="M40.8331 15.1151L39.3904 16.5146" stroke="#FFA500" stroke-width="2" stroke-linecap="round"/>
<path d="M39.0403 10.9167H37" stroke="#FFA500" stroke-width="2" stroke-linecap="round"/>
<path d="M40.8331 6.7182L39.3904 5.31872" stroke="#FFA500" stroke-width="2" stroke-linecap="round"/>
<path d="M45.1612 4.97919V3.00002" stroke="#FFA500" stroke-width="2" stroke-linecap="round"/>
<path d="M49.4893 6.7182L50.9321 5.31872" stroke="#FFA500" stroke-width="2" stroke-linecap="round"/>
<path d="M51.2821 10.9167H53.3224" stroke="#FFA500" stroke-width="2" stroke-linecap="round"/>
<path d="M49.4893 15.1151L50.9321 16.5146" stroke="#FFA500" stroke-width="2" stroke-linecap="round"/>
<path d="M45.1612 14.2153C47.0393 14.2153 48.5617 12.7384 48.5617 10.9166C48.5617 9.09488 47.0393 7.61804 45.1612 7.61804C43.2832 7.61804 41.7607 9.09488 41.7607 10.9166C41.7607 12.7384 43.2832 14.2153 45.1612 14.2153Z" fill="#FFA500" stroke="#FFA500" stroke-width="2"/>
<path d="M64 16.4583C64 13.4236 61.4836 11.0486 58.4232 11.0486C57.7431 11.0486 57.131 11.1806 56.5189 11.3785C56.3149 9.13543 54.4106 7.28821 52.0302 7.28821C49.5139 7.28821 47.4735 9.26737 47.4735 11.7083C47.4735 12.2361 47.6096 12.7639 47.7456 13.2257C47.5416 13.1597 47.2695 13.1597 47.0655 13.1597C44.5491 13.1597 42.5088 15.1389 42.5088 17.5799C42.5088 19.9549 44.4811 21.934 46.9295 22H58.6272C61.6196 21.6701 64 19.3611 64 16.4583Z" fill="#91C0F8" stroke="white" stroke-width="1.2" stroke-linejoin="round"/>
<path d="M50 50V53" stroke="#FFA500" stroke-width="2" stroke-linecap="round"/>
<path d="M43.636 47.364L41.5147 49.4853" stroke="#FFA500" stroke-width="2" stroke-linecap="round"/>
<path d="M41 41H38" stroke="#FFA500" stroke-width="2" stroke-linecap="round"/>
<path d="M43.636 34.636L41.5147 32.5147" stroke="#FFA500" stroke-width="2" stroke-linecap="round"/>
<path d="M50 32V29" stroke="#FFA500" stroke-width="2" stroke-linecap="round"/>
<path d="M56.364 34.636L58.4853 32.5147" stroke="#FFA500" stroke-width="2" stroke-linecap="round"/>
<path d="M59 41H62" stroke="#FFA500" stroke-width="2" stroke-linecap="round"/>
<path d="M56.364 47.364L58.4853 49.4853" stroke="#FFA500" stroke-width="2" stroke-linecap="round"/>
<path d="M50 46C52.7614 46 55 43.7614 55 41C55 38.2386 52.7614 36 50 36C47.2386 36 45 38.2386 45 41C45 43.7614 47.2386 46 50 46Z" fill="#FFA500" stroke="#FFA500" stroke-width="2"/>
<path d="M17.064 51.5085L16 57.5427" stroke="#91C0F8" stroke-width="2" stroke-linecap="round" stroke-dasharray="4 4"/>
<path d="M19.9725 50.4659L18.9085 56.5001" stroke="#91C0F8" stroke-width="2" stroke-linecap="round" stroke-dasharray="4 4"/>
<path d="M22.4819 51.6862L21.418 57.7203" stroke="#91C0F8" stroke-width="2" stroke-linecap="round" stroke-dasharray="4 4"/>
<path d="M33.6 41.8431C33.6 37.9238 30.6025 34.8565 26.957 34.8565C26.1468 34.8565 25.4177 35.0269 24.6886 35.2825C24.4456 32.3857 22.1772 30 19.3418 30C16.3443 30 13.9139 32.5561 13.9139 35.7085C13.9139 36.3901 14.0759 37.0717 14.238 37.6682C13.9949 37.583 13.6709 37.583 13.4278 37.583C10.4304 37.583 8 40.139 8 43.2915C8 46.3587 10.3494 48.9148 13.2658 49H27.2C30.7646 48.574 33.6 45.5919 33.6 41.8431Z" fill="#57A0EE" stroke="white" stroke-width="1.2" stroke-linejoin="round"/>
</svg>
