<svg width="60" height="50" viewBox="0 0 60 50" fill="none" xmlns="http://www.w3.org/2000/svg">
<path d="M20 5.67832L5 1.65999C2.23833 0.919989 0 2.55832 0 5.32166V38.655C0 41.415 2.23833 44.2533 5 44.995L20 49.0133V5.67832ZM40 43.655L55 47.6733C57.76 48.4117 60 46.7733 60 44.0133V10.68C60 7.91832 57.76 5.07999 55 4.33999L40 0.321655V43.655Z" fill="#CCD6DD"/>
<path d="M40 43.6533L20 49.0116V5.67828L40 0.319946V43.6533Z" fill="#E1E8ED"/>
<path d="M20 9.01161L6.66665 5.43828C4.82665 4.94494 3.33331 6.03828 3.33331 7.87828V37.8783C3.33331 39.7183 4.82665 41.6116 6.66665 42.1033L20 45.6783V9.01161ZM53.3333 7.22494L40 3.65161V40.3183L53.3333 43.8916C55.1733 44.3849 56.6666 43.2933 56.6666 41.4499V11.4499C56.6666 9.61161 55.1733 7.71828 53.3333 7.22494Z" fill="#55ACEE"/>
<path d="M40 40.32L20 45.6783V9.01165L40 3.65332V40.32Z" fill="#88C9F9"/>
<path d="M20 28.8433C19.5533 28.8533 19.0083 29.0166 18.5917 29.085C17.865 29.2066 18.0433 29.9466 17.82 29.8233C17.305 29.5445 16.8462 29.1726 16.4667 28.7266C15.905 28.07 16.8833 27.9316 17.1633 27.69C17.4433 27.4483 16.6367 27.4033 16.355 27.1366C16.0733 26.8716 15.57 27.31 15.1233 26.6766C14.6733 26.05 14.955 25.36 14.9017 24.71C14.845 24.06 15.6283 24.1416 16.1333 24.1533C16.6383 24.1583 17.03 24.3933 17.03 25.1566C17.03 25.9166 17.6467 26.3366 17.4783 25.4C17.31 24.465 17.6467 24.305 17.87 23.9166C18.0933 23.5333 18.4867 23 18.99 22.1833C19.3583 21.5866 19.6383 21.7116 20 21.91V16.335C19.9083 16.2616 19.8167 16.185 19.725 16.1466C19.22 15.9266 19.885 17.4016 19.4933 17.995C19.0983 18.5883 18.4967 18.3166 17.8767 18.1516C17.2617 17.9866 16.6883 17.2433 17.1383 16.4733C17.585 15.7033 18.4417 16.0266 18.89 15.385C19.3383 14.7433 17.295 14.265 16.5667 13.8166C15.8367 13.365 14.9617 13.135 14.2333 13.5733C13.505 14.0133 11.945 13.795 11.3283 13.8833C10.7117 13.9733 10.6017 13.2683 10.49 12.7283C10.3783 12.1916 9.40167 12.18 8.39501 12.165C7.38501 12.1483 5.49334 12.6333 5.81667 15.0966C5.93001 15.9533 6.82501 15.3033 6.99501 15.1566C7.16334 15.01 8.00334 15.49 8.11334 16.2183C8.22667 16.95 8.17167 17.6966 7.94834 18.2716C7.72001 18.8466 8.50834 19.9483 8.95501 20.9583C9.40334 21.9666 9.91001 22.1016 10.1333 22.1633C10.3583 22.2233 11.6467 23.1416 11.5917 23.8233C11.5367 24.5083 12.7683 25.475 13.2733 26.0566C13.7783 26.64 14.0967 27.16 14.7517 27.4666C15.4067 27.7716 16.1717 29.1916 16.5083 29.4083C16.7667 29.575 17.205 30.16 17.4683 30.375C17.1217 30.7783 16.4483 31.6216 16.4483 32.09C16.4483 32.7283 17.1817 33.9283 17.4617 34.2566C17.74 34.5833 18.545 34.9933 18.7133 35.6733C18.8817 36.3516 18.5967 38.4166 18.0933 38.8516C17.5867 39.2883 17.4033 40.59 17.4033 40.59C17.4033 40.59 17.5817 41.0783 18.1783 40.7966C18.6933 40.5566 19.4717 39.8533 20.0017 39.4616V28.8433H20Z" fill="#5C913B"/>
<path d="M20.4467 22.0216C20.28 22.0483 20.135 22.0416 20 22.0399V16.4649C20.4233 16.5733 20.8533 16.9933 21.1783 17.6916C21.5683 18.5399 22.185 17.8016 22.41 18.3149C22.6333 18.8283 23.8683 19.5783 23.2517 19.5516C22.6333 19.5266 22.0167 19.5649 21.85 20.3083C21.68 21.0549 22.13 21.6316 21.68 21.6883C21.23 21.7433 21.0633 21.9249 20.4467 22.0216ZM24.7633 31.2849C24.0367 31.1616 24.165 31.2466 23.7167 30.2866C23.27 29.3249 22.9983 29.0483 21.99 29.1933C20.9817 29.3383 21.0183 29.4199 20.7383 28.9216C20.6183 28.7083 20.3367 28.7849 20 28.9733V39.5899C20.15 39.3999 20.2833 39.2383 20.38 39.1449C21.2686 38.2993 22.0858 37.3817 22.8233 36.4016C23.6067 35.3666 23.3233 34.8616 23.715 33.9333C24.1083 33.0033 24.6167 32.9049 25.2883 32.0249C25.9633 31.1416 25.4917 31.4116 24.7633 31.2849ZM40 19.2183V8.69495C39.9333 8.70161 39.8867 8.71495 39.8167 8.71995C39.4683 8.73828 39.0133 8.94495 38.5183 9.25328C38.4783 9.24495 38.4417 9.22661 38.4017 9.21828C36.9083 8.92661 36.215 11.2266 35.0033 11.1383C33.7883 11.0499 32.17 10.5649 31.1167 11.9949C30.065 13.4233 29.8217 14.5449 31.1167 14.1516C32.4117 13.7583 33.3033 11.7766 33.95 12.3366C34.5967 12.8966 34.4333 13.5383 32.8967 14.1783C31.36 14.8199 29.7 15.5399 28.81 15.7783C27.92 16.0166 27.7183 16.6683 28.3233 17.1483C28.93 17.6283 27.9583 17.9333 26.9467 18.8483C25.935 19.7599 27.19 19.7016 28.04 20.0233C28.89 20.3449 29.5367 19.4849 29.9017 18.4699C30.2633 17.4566 31.8317 15.9349 32.485 15.8966C33.1383 15.8583 33.1383 16.2249 33.015 16.8999C32.9933 17.0183 33.0167 17.0716 33.0333 17.1299C32.75 18.0299 32.5167 18.8466 32.425 19.3066C32.3804 19.6352 32.3654 19.967 32.38 20.2983C32.2367 20.3049 32.075 20.3333 31.9667 20.2999C31.2367 20.0849 29.5767 19.9333 29.1317 20.3716C28.6867 20.8133 28.445 21.2083 27.9183 21.5766C27.39 21.9416 25.2467 23.6166 25.2067 25.0499C25.165 26.4816 25.125 28.0999 25.975 27.9183C26.825 27.7366 28.89 26.5416 29.5367 25.7716C30.1817 24.9999 31.0717 24.9016 31.3567 25.5116C31.64 26.1266 31.4367 26.5933 31.1567 27.7683C30.8717 28.9483 31.34 29.3733 31.7917 30.2149C32.2467 31.0549 32.61 31.5066 32.61 32.1966C32.61 32.8833 33.2583 33.4016 34.2267 31.9916C34.5649 31.4836 34.8636 30.9504 35.12 30.3966C35.8017 29.6149 36.4 28.8583 36.3833 28.5699C36.362 28.2236 36.3487 27.8769 36.3433 27.5299L36.495 27.1633C36.7067 26.6749 36.8967 25.9199 37.0983 25.2383C37.1082 25.224 37.1193 25.2106 37.1317 25.1983C37.5267 24.6366 37.44 24.6099 38.0983 23.9383C38.5383 23.4883 38.5217 23.0849 38.455 22.8083C38.63 22.5166 38.6783 22.3416 38.4 22.4166L38.3733 22.4233C38.37 22.4233 38.365 22.4549 38.3633 22.4466C38.325 22.1983 38.02 22.4516 37.5283 22.6933C37.055 22.7066 36.585 22.5833 36.415 22.0799C36.1933 21.4199 35.4117 20.4199 35.35 19.8533C35.355 19.7849 35.3583 19.7249 35.3667 19.6466C35.3868 19.5858 35.4274 19.534 35.4817 19.4999C35.5393 19.468 35.6028 19.4481 35.6683 19.4416C35.7367 19.6266 35.7933 19.9066 35.8117 20.2149C35.855 21.0099 36.4683 20.5416 36.4683 21.0449C36.4683 21.5499 37.3517 21.8649 37.57 21.9583C37.6317 21.9849 37.7267 21.9133 37.835 21.7949C37.8867 21.8133 37.935 21.8499 37.99 21.8566C38.4767 21.9083 39.5267 20.2166 39.8517 19.9166C40.0217 19.7583 40.025 19.4683 39.9067 19.2599L40 19.2183Z" fill="#77B255"/>
<path d="M46.0567 26.7017C45.9683 27.435 46.3633 27.0367 47.0667 27.8767C47.7717 28.7234 46.8933 28.5334 46.585 28.4034C46.2767 28.27 45.9683 28.185 45.62 27.54C45.265 26.8884 45.62 26.3817 45.62 25.8284C45.62 25.8284 46.1467 25.9684 46.0567 26.7017ZM46.66 25.2C47.3083 25.4767 46.85 24.3967 47.0667 23.7984C47.2867 23.205 47.5933 23.185 47.9917 23.1934C48.385 23.1967 48.695 22.875 48.96 22.545C49.2217 22.2134 49.7067 21.7884 49.6633 21.3234C49.62 20.8584 49.49 20.52 49.31 19.9184C49.135 19.3184 49.8367 19.305 50.1467 18.7334C50.4533 18.1617 50.1467 18.7334 50.8483 18.72C51.5517 18.7067 51.245 18.6234 51.375 18.3567C51.5083 18.0917 51.5967 17.8117 51.465 17.2234C51.335 16.635 50.8483 17.0567 50.365 16.9284C49.8833 16.8 50.5417 16.22 50.585 15.6284C50.6283 15.035 51.2467 15.3534 51.6867 15.42C52.125 15.485 52.2567 16.2267 52.3883 16.415C52.5233 16.6017 53.88 15.8067 54.235 15.3467C54.5867 14.8884 53.925 14.8617 54.1033 14.675C54.28 14.49 53.05 14.1134 52.5617 13.8934C52.08 13.6717 50.8483 13.2817 50.365 12.8117C49.8833 12.34 48.0383 12.1017 47.5517 12.25C47.0667 12.3934 46.7583 12.0117 46.5417 11.5734C46.3233 11.1367 45.3983 11.0784 45.135 10.795C44.8717 10.5117 44.6083 11.0067 44.2533 11.0617C43.9033 11.12 43.7717 11.1334 43.33 10.7134C42.8917 10.2934 43.4633 10.095 42.85 9.67836C42.2583 9.28169 41.495 9.37503 40 8.69336V19.2167C40.2617 19.24 40.515 19.2767 40.6067 19.3017C40.825 19.36 41.3533 20.2567 41.3533 20.6084C41.3533 20.96 41.6167 21.9884 41.8383 22.6C42.0567 23.21 42.5383 23.4434 42.9817 23.9634C43.4217 24.4834 43.6383 24.1917 43.6383 24.1917C43.6383 24.1917 43.4633 23.285 43.4633 22.5834C43.4633 21.8767 43.99 21.415 43.99 21.415C43.99 21.415 44.8233 22.345 44.87 22.5567C44.9133 22.77 45.5717 23.65 45.6183 24.0167C45.6617 24.3817 46.0133 24.9267 46.66 25.2ZM50.1467 21.7534C50.4533 21.8867 51.7733 22.0384 51.07 21.1967C50.365 20.3534 50.8933 20.6984 50.9817 19.9667C51.07 19.2334 50.5417 19.0934 50.5417 19.0934C50.5417 19.6467 50.19 20.1567 50.5417 20.8034C50.8917 21.4534 49.8367 21.62 50.1467 21.7534ZM53.4867 30.705C53.2683 30.3434 52.785 30.0634 52.2567 29.9367C51.7317 29.81 51.7733 29.1367 51.2467 29.0484C50.72 28.9567 50.34 28.4 50.1033 28.195C49.5833 27.7517 49.9267 28.5434 50.1033 29.36C50.28 30.1734 50.9383 29.77 51.5517 30.3367C52.1667 30.9034 52.2133 30.3634 52.785 30.7184C53.355 31.07 53.5767 31.585 54.125 31.6817C54.6733 31.78 53.7083 31.0667 53.4867 30.705ZM48.34 28.3184C48.7767 28.9884 48.605 28.39 49.18 28.2917C49.7517 28.1934 48.695 27.3567 48.3433 26.96C47.9917 26.5634 47.6433 26.4584 47.335 27.0417C46.985 27.7067 47.905 27.6484 48.34 28.3184ZM52.345 32.6167C52.1233 32.0534 51.4817 31.4284 51.22 31.1C50.955 30.7784 50.5417 30.58 50.19 30.635C49.8367 30.6867 49.6183 30.4817 49.4433 30.0334C49.2667 29.59 48.96 29.645 48.695 29.6267C48.4333 29.6067 47.3767 29.825 46.76 30.01C46.1467 30.1984 45.865 30.43 45.4633 30.7717C44.8267 31.305 45.18 30.9467 45.4633 31.4784C45.7433 32.0084 45.1517 33.255 45.1083 34.05C45.0633 34.845 46.235 34.1017 46.6733 34.115C47.1133 34.135 46.9833 33.8 47.3333 33.5917C47.6867 33.3834 47.915 33.3767 48.2983 33.8784C48.6867 34.3867 49.1933 34.8967 49.1933 35.35C49.1933 35.8 50.5833 36.9284 51.1117 36.77C51.6383 36.6067 51.9467 36.09 52.43 35.7117C52.915 35.3367 52.74 34.3384 52.87 33.765C53.005 33.1917 52.5617 33.175 52.345 32.6167Z" fill="#5C913B"/>
<path d="M35 13C32.9289 13 31.25 14.6789 31.25 16.75C31.25 17.6372 31.6409 18.4173 32.0736 19.0938L34.745 22.8681C34.8036 22.9509 34.8987 23 35 23C35.1013 23 35.1964 22.9509 35.255 22.8681L37.9264 19.0938C38.3398 18.5372 38.75 17.6372 38.75 16.75C38.75 14.6789 37.0711 13 35 13ZM37.5136 19.0938H37.512L35 22.5312L32.488 19.0938H32.4864C32.1045 18.542 31.5625 17.6561 31.5625 16.75C31.5625 14.8516 33.1016 13.3125 35 13.3125C36.8984 13.3125 38.4375 14.8516 38.4375 16.75C38.4375 17.6561 37.8564 18.5908 37.5136 19.0938Z" fill="#394240"/>
<path d="M35 15.1875C34.137 15.1875 33.4375 15.8872 33.4375 16.75C33.4375 17.6128 34.137 18.3125 35 18.3125C35.863 18.3125 36.5625 17.6128 36.5625 16.75C36.5625 15.8872 35.863 15.1875 35 15.1875ZM35 18C34.3097 18 33.75 17.4403 33.75 16.75C33.75 16.0597 34.3097 15.5 35 15.5C35.6903 15.5 36.25 16.0597 36.25 16.75C36.25 17.4403 35.6903 18 35 18Z" fill="#394240"/>
<path d="M35 14.5625C33.7919 14.5625 32.8125 15.5419 32.8125 16.75C32.8125 17.9581 33.7919 18.9375 35 18.9375C36.2081 18.9375 37.1875 17.9581 37.1875 16.75C37.1875 15.5419 36.2081 14.5625 35 14.5625ZM35 18.625C33.9645 18.625 33.125 17.7855 33.125 16.75C33.125 15.7145 33.9645 14.875 35 14.875C36.0355 14.875 36.875 15.7145 36.875 16.75C36.875 17.7855 36.0355 18.625 35 18.625Z" fill="#394240"/>
<path d="M35 14.875C33.9645 14.875 33.125 15.7145 33.125 16.75C33.125 17.7855 33.9645 18.625 35 18.625C36.0355 18.625 36.875 17.7855 36.875 16.75C36.875 15.7145 36.0355 14.875 35 14.875ZM35 18.3125C34.1372 18.3125 33.4375 17.613 33.4375 16.75C33.4375 15.887 34.1372 15.1875 35 15.1875C35.8628 15.1875 36.5625 15.887 36.5625 16.75C36.5625 17.613 35.8628 18.3125 35 18.3125Z" fill="#F76D57"/>
<path d="M35 13.3125C33.1016 13.3125 31.5625 14.8516 31.5625 16.75C31.5625 17.6561 32.1045 18.542 32.4864 19.0938H32.488L35 22.5312L37.512 19.0938H37.5136C37.8564 18.5908 38.4375 17.6561 38.4375 16.75C38.4375 14.8516 36.8984 13.3125 35 13.3125ZM35 18.9375C33.7919 18.9375 32.8125 17.9581 32.8125 16.75C32.8125 15.5419 33.7919 14.5625 35 14.5625C36.2081 14.5625 37.1875 15.5419 37.1875 16.75C37.1875 17.9581 36.2081 18.9375 35 18.9375Z" fill="#F76D57"/>
<path opacity="0.2" d="M35 14.875C33.9645 14.875 33.125 15.7145 33.125 16.75C33.125 17.7855 33.9645 18.625 35 18.625C36.0355 18.625 36.875 17.7855 36.875 16.75C36.875 15.7145 36.0355 14.875 35 14.875ZM35 18.3125C34.1372 18.3125 33.4375 17.613 33.4375 16.75C33.4375 15.887 34.1372 15.1875 35 15.1875C35.8628 15.1875 36.5625 15.887 36.5625 16.75C36.5625 17.613 35.8628 18.3125 35 18.3125Z" fill="#231F20"/>
</svg>
