<svg width="45" height="45" viewBox="0 0 45 45" fill="none" xmlns="http://www.w3.org/2000/svg">
<path d="M10.1614 14.5161C7.75969 14.5161 5.80658 12.563 5.80658 10.1613C5.80658 7.75964 7.75969 5.8064 10.1614 5.8064C12.563 5.8064 14.5162 7.75964 14.5162 10.1613C14.5162 12.563 12.563 14.5161 10.1614 14.5161Z" fill="#F9BA48"/>
<path d="M34.1129 22.4999C31.7113 22.4999 29.7581 20.5468 29.7581 18.1452C29.7581 15.7435 31.7113 13.7904 34.1129 13.7904C36.5146 13.7904 38.4677 15.7435 38.4677 18.1452C38.4677 20.5468 36.5148 22.4999 34.1129 22.4999Z" fill="#F9BA48"/>
<path d="M0 2.17746L3.62912 36.3287V42.8225C3.62912 44.023 4.60613 45 5.80659 45H14.5163C15.7168 45 16.6938 44.023 16.6938 42.8225V36.3303L20.3191 2.25428L20.3226 0H0V2.17746ZM15.242 40.6451H13.0645V39.9193C13.0645 39.1188 12.4135 38.4676 11.6129 38.4676H8.70973C7.90922 38.4676 7.25808 39.1186 7.25808 39.9193V40.6451H5.08061V37.016H15.242V40.6451ZM11.613 40.6451H8.70973V39.9193H11.613V40.6451ZM14.5162 43.5482H5.80644C5.40649 43.5482 5.08061 43.2231 5.08061 42.8224V42.0966H7.25808H13.0645H15.242V42.8224C15.242 43.2231 14.9161 43.5482 14.5162 43.5482ZM1.45165 1.45164H18.8711V2.13905L15.3153 35.5645H5.0073L1.45165 2.13889V1.45164Z" fill="#333333"/>
<path d="M17.4195 9.43549H15.9678V10.8871H17.4195V9.43549Z" fill="#333333"/>
<path d="M14.7803 4.51588L13.7538 5.54233L14.7803 6.56878L15.8068 5.54233L14.7803 4.51588Z" fill="#333333"/>
<path d="M10.8872 2.90326H9.43555V4.3549H10.8872V2.90326Z" fill="#333333"/>
<path d="M5.54218 4.51594L4.51587 5.54254L5.54247 6.56885L6.56879 5.54225L5.54218 4.51594Z" fill="#333333"/>
<path d="M4.35494 9.43549H2.90329V10.8871H4.35494V9.43549Z" fill="#333333"/>
<path d="M5.54202 13.7539L4.51556 14.7803L5.54202 15.8068L6.56848 14.7803L5.54202 13.7539Z" fill="#333333"/>
<path d="M10.8872 15.9677H9.43555V17.4194H10.8872V15.9677Z" fill="#333333"/>
<path d="M14.7799 13.7546L13.7536 14.7812L14.7802 15.8075L15.8065 14.7809L14.7799 13.7546Z" fill="#333333"/>
<path d="M14.5162 23.2257H5.80643V24.6774H14.5162V23.2257Z" fill="#333333"/>
<path d="M11.6129 26.129H5.80643V27.5807H11.6129V26.129Z" fill="#333333"/>
<path d="M14.5162 26.129H13.0645V27.5807H14.5162V26.129Z" fill="#333333"/>
<path d="M39.1937 6.57505V1.45164C39.1937 0.651134 38.5427 0 37.7421 0H30.484C29.6835 0 29.0323 0.650981 29.0323 1.45164V6.57505C25.7713 6.93719 23.2259 9.70756 23.2259 13.0644V37.6525C23.2259 38.2527 23.3 38.8522 23.4458 39.4358C24.2652 42.712 27.1954 44.9998 30.5718 44.9998H37.6549C41.0313 44.9998 43.9614 42.712 44.7808 39.4344C44.9259 38.8523 45 38.2529 45 37.6526V13.0644C45.0001 9.70756 42.4547 6.93719 39.1937 6.57505ZM30.484 4.35476H37.7421V6.53222H30.484V4.35476ZM37.7421 1.45164V2.90327H30.484V1.45164H37.7421ZM43.5485 37.6525C43.5485 38.1344 43.4889 38.6149 43.3721 39.0845C42.7152 41.7126 40.3637 43.5482 37.6543 43.5482H30.5712C27.8625 43.5482 25.5108 41.7126 24.8533 39.0816C24.7371 38.6149 24.6777 38.1344 24.6777 37.6525V13.0644C24.6777 10.2636 26.9567 7.98385 29.7583 7.98385H38.468C41.2697 7.98385 43.5486 10.2636 43.5486 13.0644L43.5485 37.6525Z" fill="#333333"/>
<path d="M41.3712 17.4193H39.9195V18.871H41.3712V17.4193Z" fill="#333333"/>
<path d="M38.7318 12.4996L37.7053 13.5261L38.7318 14.5525L39.7582 13.5261L38.7318 12.4996Z" fill="#333333"/>
<path d="M34.8389 10.8871H33.3873V12.3388H34.8389V10.8871Z" fill="#333333"/>
<path d="M29.4938 12.5006L28.4675 13.5272L29.4941 14.5535L30.5204 13.5269L29.4938 12.5006Z" fill="#333333"/>
<path d="M28.3065 17.4193H26.8549V18.871H28.3065V17.4193Z" fill="#333333"/>
<path d="M29.4933 21.7379L28.4669 22.7643L29.4933 23.7908L30.5198 22.7643L29.4933 21.7379Z" fill="#333333"/>
<path d="M34.8389 23.9516H33.3873V25.4032H34.8389V23.9516Z" fill="#333333"/>
<path d="M38.7317 21.7391L37.7054 22.7657L38.732 23.792L39.7583 22.7654L38.7317 21.7391Z" fill="#333333"/>
<path d="M40.6452 31.2096H27.5807V32.6612H40.6452V31.2096Z" fill="#333333"/>
<path d="M37.7421 34.1129H27.5807V35.5645H37.7421V34.1129Z" fill="#333333"/>
<path d="M40.6453 34.1129H39.1937V35.5645H40.6453V34.1129Z" fill="#333333"/>
</svg>
