<svg width="51" height="51" viewBox="0 0 51 51" fill="none" xmlns="http://www.w3.org/2000/svg">
<path d="M40.5 3V48M40.5 48L33 40.5M40.5 48L48 40.5M13 35.5C11.6193 35.5 10.5 36.6193 10.5 38C10.5 39.3807 11.6193 40.5 13 40.5C14.3807 40.5 15.5 39.3807 15.5 38C15.5 36.6193 14.3807 35.5 13 35.5ZM13 35.5V25.5M13 38L13.0177 38.0177M23 38C23 43.5228 18.5229 48 13 48C7.47715 48 3 43.5228 3 38C3 35.464 3.9441 33.1483 5.5 31.3855V10.5004C5.5 6.3583 8.85788 3.00042 13 3.00042C17.1421 3.00042 20.5 6.3583 20.5 10.5004V31.3855C22.056 33.1483 23 35.464 23 38Z" stroke="black" stroke-width="5" stroke-linecap="round" stroke-linejoin="round"/>
</svg>
