<svg width="50" height="50" viewBox="0 0 50 50" fill="none" xmlns="http://www.w3.org/2000/svg">
<path d="M39.9958 2.49964V47.4996M39.9958 2.49964L32.4958 9.99964M39.9958 2.49964L47.4958 9.99964M12.4958 34.9991C11.1151 34.9991 9.99581 36.1184 9.99581 37.4991C9.99581 38.8799 11.1151 39.9991 12.4958 39.9991C13.8765 39.9991 14.9958 38.8799 14.9958 37.4991C14.9958 36.1184 13.8765 34.9991 12.4958 34.9991ZM12.4958 34.9991V24.9991M12.4958 37.4991L12.5135 37.5169M22.4958 37.4991C22.4958 43.0221 18.0187 47.4991 12.4958 47.4991C6.97296 47.4991 2.49581 43.0221 2.49581 37.4991C2.49581 34.9631 3.43991 32.6474 4.99581 30.8846V9.99964C4.99581 5.85752 8.35369 2.49964 12.4958 2.49964C16.6379 2.49964 19.9958 5.85752 19.9958 9.99964V30.8846C21.5518 32.6474 22.4958 34.9631 22.4958 37.4991Z" stroke="black" stroke-width="5" stroke-linecap="round" stroke-linejoin="round"/>
</svg>
