<svg width="60" height="60" viewBox="0 0 60 60" fill="none" xmlns="http://www.w3.org/2000/svg">
<path fill-rule="evenodd" clip-rule="evenodd" d="M15.625 13.75C15.625 9.2627 19.2627 5.625 23.75 5.625C28.2372 5.625 31.875 9.26268 31.875 13.75C31.875 18.2373 28.2372 21.875 23.75 21.875H7.5C6.46448 21.875 5.625 21.0355 5.625 20C5.625 18.9645 6.46448 18.125 7.5 18.125H23.75C26.1662 18.125 28.125 16.1662 28.125 13.75C28.125 11.3338 26.1662 9.375 23.75 9.375C21.3338 9.375 19.375 11.3338 19.375 13.75V14.6429C19.375 15.6784 18.5355 16.5179 17.5 16.5179C16.4645 16.5179 15.625 15.6784 15.625 14.6429V13.75Z" fill="#1C274C"/>
<path opacity="0.4" d="M8.125 35C8.125 33.9645 8.96448 33.125 10 33.125H46.25C52.118 33.125 56.875 37.882 56.875 43.75C56.875 49.618 52.118 54.375 46.25 54.375C40.382 54.375 35.625 49.618 35.625 43.75V42.5C35.625 41.4645 36.4645 40.625 37.5 40.625C38.5355 40.625 39.375 41.4645 39.375 42.5V43.75C39.375 47.547 42.453 50.625 46.25 50.625C50.047 50.625 53.125 47.547 53.125 43.75C53.125 39.953 50.047 36.875 46.25 36.875H10C8.96448 36.875 8.125 36.0355 8.125 35Z" fill="#1C274C"/>
<path opacity="0.7" d="M35.625 18.75C35.625 12.882 40.382 8.125 46.25 8.125C52.118 8.125 56.875 12.882 56.875 18.75C56.875 24.618 52.118 29.375 46.25 29.375H5C3.96448 29.375 3.125 28.5355 3.125 27.5C3.125 26.4645 3.96448 25.625 5 25.625H46.25C50.047 25.625 53.125 22.5469 53.125 18.75C53.125 14.9531 50.047 11.875 46.25 11.875C42.453 11.875 39.375 14.9531 39.375 18.75V20C39.375 21.0355 38.5355 21.875 37.5 21.875C36.4645 21.875 35.625 21.0355 35.625 20V18.75Z" fill="#1C274C"/>
</svg>
